# xmcd
#
# Track frame offsets:
# 150
# 19547
# 30895
# 48108
# 62870
# 80485
# 96666
# 117079
# 137808
# 155730
# 175574
#
# Disc length: 2742 seconds
#
#
# Revision: 0
# Processed by: cddbd v1.4PL0 Copyright (c) Steve Scherf et al.
# Submitted via: FreeRIP 2.00 
#
DISCID=840ab40b
DTITLE=Chris Knight - The Jealous Kind
DYEAR=2003
DGENRE=Country
TTITLE0=The Jealous Kind
TTITLE1=Banging Away
TTITLE2=The Border
TTITLE3=Staying Up All Night Long
TTITLE4=A Train Not Running
TTITLE5=Carla Came Home
TTITLE6=Me And This Road
TTITLE7=Broken Plow
TTITLE8=Devil Behind The Wheel
TTITLE9=Hello Old Man
TTITLE10=Long Black Highway
EXTD=
EXTT0=
EXTT1=
EXTT2=
EXTT3=
EXTT4=
EXTT5=
EXTT6=
EXTT7=
EXTT8=
EXTT9=
EXTT10=
PLAYORDER=
